<svg width="114" height="100" viewBox="0 0 114 100" fill="none" xmlns="http://www.w3.org/2000/svg">
  <path d="M94.9687 12.1236H18.1855V44.4534H28.2886C28.8245 44.4534 29.3384 44.6663 29.7174 45.0452C30.0963 45.4242 30.3092 45.9381 30.3092 46.474H34.3504V42.4328C33.8145 42.4328 33.3005 42.2199 32.9216 41.841C32.5427 41.462 32.3298 40.9481 32.3298 40.4122V28.2885C32.3298 27.7526 32.5427 27.2387 32.9216 26.8597C33.3005 26.4808 33.8145 26.2679 34.3504 26.2679H46.177L64.8919 20.6526C65.2704 19.2329 66.1527 17.9995 67.3742 17.1829C68.5956 16.3662 70.0726 16.0222 71.5292 16.215C72.9858 16.4078 74.3223 17.1243 75.2892 18.2306C76.2561 19.3369 76.7872 20.7574 76.7832 22.2267V46.474C76.7872 47.9433 76.2561 49.3638 75.2892 50.4701C74.3223 51.5764 72.9858 52.2929 71.5292 52.4857C70.0726 52.6785 68.5956 52.3345 67.3742 51.5178C66.1527 50.7012 65.2704 49.4678 64.8919 48.0481L46.4741 42.5217V46.474H48.4947C49.0306 46.474 49.5445 46.6869 49.9235 47.0658C50.3024 47.4448 50.5153 47.9587 50.5153 48.4946V56.5771C50.5153 57.113 50.3024 57.6269 49.9235 58.0058C49.5445 58.3848 49.0306 58.5977 48.4947 58.5977H46.4741V64.6595C46.4741 65.1954 46.2612 65.7094 45.8822 66.0883C45.5033 66.4672 44.9894 66.6801 44.4535 66.6801H30.3092C30.3092 67.216 30.0963 67.73 29.7174 68.1089C29.3384 68.4878 28.8245 68.7007 28.2886 68.7007H18.1855V72.7419H94.9687V12.1236ZM86.2074 21.5255L87.838 25.2232L80.4405 28.4906L78.8038 24.7828L86.2074 21.5255ZM86.2074 46.666L78.8038 43.4087L80.4345 39.711L87.8319 42.9682L86.2074 46.666ZM88.9069 36.371H80.8244V32.3297H88.9069V36.371Z" fill="black" />
  <path d="M44.4534 30.3091H36.371V38.3916H44.4534V30.3091Z" fill="black" />
  <path d="M26.268 48.4947H18.1855V64.6596H26.268V48.4947Z" fill="black" />
  <path d="M94.9687 2.02061C94.9687 1.48471 94.7558 0.970761 94.3769 0.591824C93.998 0.212886 93.484 0 92.9481 0H20.2061C19.6702 0 19.1563 0.212886 18.7773 0.591824C18.3984 0.970761 18.1855 1.48471 18.1855 2.02061V8.08244H94.9687V2.02061ZM26.268 6.06183H22.2267V2.02061H26.268V6.06183ZM34.3504 6.06183H30.3092V2.02061H34.3504V6.06183ZM42.4328 6.06183H38.3916V2.02061H42.4328V6.06183Z" fill="black" />
  <path d="M42.4328 42.4328H38.3916V46.474H42.4328V42.4328Z" fill="black" />
  <path d="M36.2902 87.8763C36.826 87.8765 37.3399 88.0894 37.7187 88.4684L41.1679 91.9176H67.7834L71.2326 88.4684C71.6114 88.0894 72.1253 87.8765 72.6611 87.8763H108.83V31.6832H98.9291V37.6238H100.495C101.031 37.6238 101.828 37.6238 102.97 37.6238C102.97 39.412 102.97 47.6359 102.97 49.505V60.396C102.97 63.5846 102.97 70.7921 102.97 73.2673C102.97 75.2475 102.97 81.5821 102.97 82.1782H9.90098C9.90098 80.6931 9.90098 75.7426 9.90098 73.7624C9.90098 71.7822 9.90098 66.0119 9.90098 64.0317V51.4852C9.90098 49.0099 9.90098 45.5446 9.90098 43.5644C9.90098 42.0792 9.90098 39.1089 9.90098 37.6238H14.0634V31.6832H3.96039V87.8763H36.2902Z" fill="black" />
  <path d="M30.3092 51.5053V63.629H42.4328V57.5672C42.4328 57.0313 42.6457 56.5173 43.0246 56.1384C43.4036 55.7594 43.9175 55.5466 44.4534 55.5466H46.474V51.5053H30.3092ZM111.134 91.9176H73.5785L70.1293 95.3667C69.7505 95.7457 69.2366 95.9587 68.7008 95.9588H40.4122C39.8764 95.9587 39.3625 95.7457 38.9836 95.3667L35.5345 91.9176H0V95.9588C0 97.0306 0.42577 98.0585 1.18365 98.8164C1.94152 99.5742 2.96942 100 4.04122 100H109.113C110.185 100 111.213 99.5742 111.971 98.8164C112.728 98.0585 113.154 97.0306 113.154 95.9588V91.9176H111.134Z" fill="black" />
  <path d="M72.742 46.474V22.2267C72.742 21.6908 72.5291 21.1768 72.1502 20.7979C71.7712 20.419 71.2573 20.2061 70.7214 20.2061C70.1855 20.2061 69.6715 20.419 69.2926 20.7979C68.9137 21.1768 68.7008 21.6908 68.7008 22.2267V46.474C68.7008 47.0099 68.9137 47.5239 69.2926 47.9028C69.6715 48.2817 70.1855 48.4946 70.7214 48.4946C71.2573 48.4946 71.7712 48.2817 72.1502 47.9028C72.5291 47.5239 72.742 47.0099 72.742 46.474Z" fill="black" />
  <path d="M48.4947 29.7919V38.9089L64.6596 43.7583V24.9424L48.4947 29.7919Z" fill="black" />
</svg>
  