<svg width="77" height="100" viewBox="0 0 77 100" fill="none" xmlns="http://www.w3.org/2000/svg">
  <path d="M26.1731 66.247H50.7595C49.7386 72.1384 44.6131 76.6473 38.4663 76.6473C32.3199 76.6473 27.1939 72.1384 26.1731 66.247Z" fill="black" />
  <path d="M74.1333 65.205V69.3735C74.1333 70.3518 73.4738 71.2026 72.4956 71.4365L63.7972 73.5207C63.5843 74.0737 63.3501 74.648 63.0951 75.2223L67.8592 83.0066C68.3697 83.8361 68.2419 84.9208 67.5399 85.6013L59.99 93.194C59.288 93.896 58.2033 94.0237 57.3741 93.5133L49.7385 88.7702C49.1855 89.0255 48.6325 89.2596 48.1008 89.472L45.974 98.3623C45.7616 99.3195 44.8893 100 43.911 100H33.2343C32.256 100 31.3837 99.3195 31.1713 98.341L29.1083 89.5784C28.534 89.3658 27.981 89.1319 27.4493 88.8767L19.7286 93.6831C18.8994 94.1938 17.7934 94.066 17.0914 93.3643L9.52025 85.75C8.83951 85.0483 8.71178 83.9636 9.2222 83.1341L13.9437 75.4775C13.6888 74.9245 13.4333 74.3505 13.2209 73.7762L4.43682 71.6919C3.47985 71.4577 2.79911 70.6072 2.79911 69.6287V65.205C3.2249 65.2688 3.67145 65.3114 4.118 65.3114H21.7921C22.4085 74.0098 29.64 80.901 38.4662 80.901C47.2716 80.901 54.5239 74.0099 55.1408 65.3114H72.8144C73.2615 65.3114 73.708 65.2689 74.1333 65.205ZM76.9335 50.697V57.2922C76.9335 59.3651 75.0786 61.0609 72.8117 61.0609H4.12179C1.83448 61.0609 0 59.3651 0 57.2922V50.697C0 48.6057 1.83448 46.9284 4.12179 46.9284H72.8117C75.0786 46.9284 76.9335 48.6057 76.9335 50.697ZM74.6437 39.6191C74.6437 40.7038 74.6011 41.7672 74.4947 42.8519C73.9422 42.7455 73.3887 42.6816 72.8144 42.6816H4.118C3.54371 42.6816 2.99071 42.7455 2.43772 42.8519C2.33127 41.7672 2.28869 40.7038 2.28869 39.6191C2.28869 25.1565 10.8386 12.2467 23.8764 6.52539L25.4289 31.4944C25.6839 35.6206 29.087 38.8535 33.1704 38.8535H43.762C47.8459 38.8535 51.2485 35.6206 51.504 31.4944L53.0565 6.52539C66.0938 12.2467 74.6437 25.1565 74.6437 39.6191Z" fill="black" />
  <path d="M43.7544 34.6059H33.1793C31.3589 34.6059 29.7905 33.1143 29.6734 31.2292L28.044 5.00498C27.8745 2.27725 29.5784 0 31.8548 0H45.0789C47.3553 0 49.0592 2.27725 48.8897 5.00498L47.2603 31.2292C47.1432 33.1143 45.5747 34.6059 43.7544 34.6059Z" fill="black" />
</svg>
  