<svg width="55" height="50" viewBox="0 0 55 50" fill="none" xmlns="http://www.w3.org/2000/svg">
<path d="M19.6429 8.33333H35.3572V4.16667H19.6429V8.33333ZM55 29.1667V44.7917C55 46.224 55 47.75 55 50C53.2714 50 51.4397 50 50.0893 50H4.91073C3.56029 50 1.41431 50 3.86647e-05 50C2.48398e-05 48.25 2.08778e-05 46.224 2.08778e-05 44.7917V29.1667H20.625V34.375C20.625 34.9392 20.8194 35.4275 21.2082 35.8398C21.5969 36.2522 22.0573 36.4583 22.5893 36.4583H32.4107C32.9427 36.4583 33.4031 36.2522 33.7919 35.8398C34.1806 35.4275 34.375 34.9392 34.375 34.375V29.1667H55ZM31.4286 29.1667V33.3333H23.5714V29.1667H31.4286ZM55 13.5417V26.0417H2.08778e-05V13.5417C2.08778e-05 12.1094 0 10 0 8.33333C2.35714 8.33333 3.56029 8.33333 4.91073 8.33333H15.7143V3.125C15.7143 2.25694 16.0008 1.5191 16.5737 0.911458C17.1466 0.303819 17.8423 0 18.6607 0H36.3393C37.1577 0 37.8534 0.303819 38.4263 0.911458C38.9993 1.5191 39.2857 2.25694 39.2857 3.125V8.33333H50.0893C51.4397 8.33333 53.7428 8.33333 55 8.33333C55 10 55 12.1094 55 13.5417Z" fill="#FDBA30"/>
</svg>
