<svg width="50" height="50" viewBox="0 0 50 50" fill="none" xmlns="http://www.w3.org/2000/svg">
<path d="M50 13H0V19H50V13Z" fill="#FDBA30"/>
<path d="M50 22H0V28H50V22Z" fill="#FDBA30"/>
<path d="M32.5955 38.7899H17.4045V50H32.5955V38.7899Z" fill="#FDBA30"/>
<path d="M49.9566 31H46L46 50H49.9566V31Z" fill="#FDBA30"/>
<path d="M4 31H0V50H4V31Z" fill="#FDBA30"/>
<path d="M7 50H15.2345V37.7049C15.2345 37.4171 15.3488 37.1412 15.5523 36.9377C15.7558 36.7342 16.0317 36.6199 16.3195 36.6199H33.6806C33.9684 36.6199 34.2444 36.7342 34.4479 36.9377C34.6514 37.1412 34.7657 37.4171 34.7657 37.7049V50H43V31H7.00007L7 50Z" fill="#FDBA30"/>
<path d="M0 0V10H50V7L0 0Z" fill="#FDBA30"/>
</svg>
