<svg width="36" height="36" viewBox="0 0 36 36" fill="none" xmlns="http://www.w3.org/2000/svg">
<rect width="36" height="36" fill="#404041"/>
<path fill-rule="evenodd" clip-rule="evenodd" d="M21.3725 8.0168C21.3736 8.32187 21.4627 12.7308 26.0896 13.0058C26.0896 14.2773 26.0912 15.1992 26.0912 16.4125C25.7408 16.4328 23.0451 16.2371 21.3674 14.7406L21.3623 21.3726C21.426 25.9757 18.0385 28.7769 13.6108 27.8093C5.97565 25.5253 8.51275 14.2012 16.1791 15.4133C16.1791 19.0691 16.1811 15.4121 16.1811 19.0691C13.0139 18.6031 11.9545 21.2378 12.7963 23.1242C13.562 24.8417 16.7155 25.214 17.8155 22.791C17.9401 22.3167 18.0022 21.7761 18.0022 21.1691V8L21.3725 8.0168V8.0168Z" fill="white"/>
</svg>
