<svg width="42" height="50" viewBox="0 0 42 50" fill="none" xmlns="http://www.w3.org/2000/svg">
<path d="M21 16.6016C25.5853 16.6016 29.3023 12.8852 29.3023 8.30078C29.3023 3.71639 25.5853 0 21 0C16.4148 0 12.6977 3.71639 12.6977 8.30078C12.6977 12.8852 16.4148 16.6016 21 16.6016Z" fill="#FDBA30"/>
<path d="M27.1007 17.7261C25.3428 18.8674 23.2476 19.5313 21 19.5313C18.7524 19.5313 16.6572 18.8674 14.8994 17.7261C12.9561 18.4686 11.1544 19.564 9.58783 20.9698L21 25.2486L32.4122 20.9698C30.8456 19.564 29.0439 18.4685 27.1007 17.7261Z" fill="#FDBA30"/>
<path d="M38.5814 30.2734H37.6046C36.7955 30.2734 36.1395 30.9293 36.1395 31.7383V35.6445C36.1395 36.4535 36.7955 37.1094 37.6046 37.1094H38.5814C40.4694 37.1094 42 35.5791 42 33.6914C42 31.8037 40.4694 30.2734 38.5814 30.2734Z" fill="#FDBA30"/>
<path d="M4.53757 22.8785C4.14257 23.1523 3.90698 23.6021 3.90698 24.0825V27.3438H4.39535C6.81895 27.3438 8.7907 29.3151 8.7907 31.7383V35.6445C8.7907 38.0677 6.81895 40.0391 4.39535 40.0391H3.90698V43.1255C3.90698 43.7361 4.28586 44.2827 4.85765 44.4971L19.5349 50V27.8281L5.88655 22.7109C5.43656 22.5421 4.93247 22.6047 4.53757 22.8785V22.8785Z" fill="#FDBA30"/>
<path d="M33.2093 35.6445V31.7383C33.2093 29.3151 35.181 27.3438 37.6046 27.3438H38.093V24.0825C38.093 23.6021 37.8574 23.1523 37.4624 22.8785C37.0674 22.6047 36.5632 22.5421 36.1134 22.7109L22.4651 27.8281V50L37.1423 44.4971C37.7141 44.2827 38.093 43.7361 38.093 43.1255V40.0391H37.6046C35.181 40.0391 33.2093 38.0677 33.2093 35.6445V35.6445Z" fill="#FDBA30"/>
<path d="M5.86046 35.6445V31.7383C5.86046 30.9293 5.20448 30.2734 4.39535 30.2734H3.4186C1.53056 30.2734 0 31.8037 0 33.6914C0 35.5791 1.53056 37.1094 3.4186 37.1094H4.39535C5.20448 37.1094 5.86046 36.4535 5.86046 35.6445Z" fill="#FDBA30"/>
</svg>
