<svg width="95" height="100" viewBox="0 0 95 100" fill="none" xmlns="http://www.w3.org/2000/svg">
  <path d="M15.4 53.2938V4.03903H6.83687C5.02435 4.04141 3.28675 4.76249 2.0051 6.04413C0.723455 7.32578 0.00237929 9.06338 0 10.8759V55.7137C1.93364 54.1462 4.34769 53.2916 6.83687 53.2935H15.4V53.2938Z" fill="black" />
  <path d="M46.2438 46.1486V10.5934H32.3128V46.1486L39.2781 57.6914L46.2438 46.1486Z" fill="black" />
  <path d="M46.2438 0H32.3128V6.53228H46.2438V0Z" fill="black" />
  <path d="M94.5657 75.6554V18.9366L50.3049 18.6985V46.7143C50.3049 47.0841 50.2039 47.4469 50.0128 47.7635L41.0171 62.6706C40.8364 62.97 40.5814 63.2177 40.2768 63.3896C39.9723 63.5616 39.6284 63.6519 39.2787 63.6519C38.9289 63.6519 38.5851 63.5616 38.2806 63.3896C37.976 63.2177 37.721 62.97 37.5402 62.6706L28.5437 47.7629C28.3526 47.4463 28.2516 47.0835 28.2516 46.7137V18.5447L19.4623 18.4539V55.3229C19.4623 55.8615 19.2483 56.3779 18.8675 56.7587C18.4867 57.1395 17.9702 57.3535 17.4317 57.3535H6.83803C5.02505 57.3555 3.28694 58.0767 2.005 59.3587C0.72306 60.6407 0.00199616 62.3788 0 64.1918V68.8182C0.00237929 70.6308 0.723455 72.3684 2.0051 73.65C3.28675 74.9317 5.02435 75.6527 6.83687 75.6551H58.5811V34.1924C58.5811 33.6539 58.795 33.1374 59.1758 32.7566C59.5567 32.3758 60.0731 32.1619 60.6117 32.1619H84.2589C84.7974 32.1619 85.3139 32.3758 85.6947 32.7566C86.0755 33.1374 86.2894 33.6539 86.2894 34.1924V75.6554H94.5657Z" fill="black" />
  <path d="M76.2906 42.6268H82.2283V36.223H62.6421V100H82.2283V81.9011H76.2906C75.7521 81.9011 75.2356 81.6872 74.8548 81.3064C74.474 80.9256 74.2601 80.4091 74.2601 79.8706C74.2601 79.332 74.474 78.8155 74.8548 78.4347C75.2356 78.0539 75.7521 77.84 76.2906 77.84H82.2283V70.2063H76.2906C75.7521 70.2063 75.2356 69.9924 74.8548 69.6116C74.474 69.2308 74.2601 68.7143 74.2601 68.1757C74.2601 67.6372 74.474 67.1207 74.8548 66.7399C75.2356 66.3591 75.7521 66.1452 76.2906 66.1452H82.2283V58.5115H76.2906C75.7521 58.5115 75.2356 58.2975 74.8548 57.9167C74.474 57.5359 74.2601 57.0195 74.2601 56.4809C74.2601 55.9424 74.474 55.4259 74.8548 55.0451C75.2356 54.6643 75.7521 54.4504 76.2906 54.4504H82.2283V46.6879H76.2906C75.7521 46.6879 75.2356 46.4739 74.8548 46.0931C74.474 45.7123 74.2601 45.1959 74.2601 44.6573C74.2601 44.1188 74.474 43.6023 74.8548 43.2215C75.2356 42.8407 75.7521 42.6268 76.2906 42.6268ZM74.6456 90.0784C74.6456 90.5156 74.516 90.943 74.2731 91.3065C74.0302 91.67 73.685 91.9533 73.2811 92.1206C72.8772 92.2879 72.4328 92.3316 72.004 92.2464C71.5752 92.1611 71.1813 91.9505 70.8722 91.6414C70.5631 91.3323 70.3526 90.9384 70.2673 90.5097C70.182 90.0809 70.2258 89.6364 70.3931 89.2325C70.5604 88.8286 70.8437 88.4834 71.2072 88.2405C71.5707 87.9977 71.998 87.868 72.4352 87.868C73.0213 87.8686 73.5831 88.1017 73.9975 88.5161C74.4119 88.9305 74.645 89.4924 74.6456 90.0784Z" fill="black" />
</svg>
  