<svg width="106" height="100" viewBox="0 0 106 100" fill="none" xmlns="http://www.w3.org/2000/svg">
  <path d="M26.0415 36.58C25.3457 35.885 24.7938 35.0597 24.4172 34.1512C24.0406 33.2428 23.8468 32.269 23.8468 31.2856C23.8468 30.3022 24.0406 29.3285 24.4172 28.42C24.7938 27.5116 25.3457 26.6863 26.0415 25.9913L49.8567 2.19473C50.9022 1.14813 52.2344 0.434855 53.685 0.14503C55.1356 -0.144796 56.6396 0.00182885 58.0069 0.566381C59.3743 1.13093 60.5436 2.08808 61.3672 3.3169C62.1908 4.54572 62.6317 5.99108 62.6343 7.47038C62.6323 8.21136 62.5252 8.9483 62.3162 9.65921C62.3162 9.84629 62.1853 10.0334 62.1105 10.2392C61.7321 11.164 61.1723 12.0036 60.4642 12.7086L36.6302 36.58C35.9352 37.2757 35.1099 37.8277 34.2015 38.2043C33.293 38.5809 32.3193 38.7747 31.3358 38.7747C30.3524 38.7747 29.3787 38.5809 28.4702 38.2043C27.5618 37.8277 26.7365 37.2757 26.0415 36.58V36.58ZM50.3806 51.9205L6.37942 95.8655C5.85622 96.3856 5.19094 96.7395 4.46721 96.8826C3.74348 97.0256 2.9936 96.9516 2.31185 96.6697C1.6301 96.3878 1.04689 95.9106 0.635554 95.2982C0.224214 94.6858 0.00309741 93.9654 0 93.2277C0.0336786 92.2485 0.450138 91.3215 1.15989 90.646L45.1423 46.6074C47.1687 48.0784 48.9385 49.8735 50.3806 51.9205V51.9205ZM57.8076 57.7387L57.5457 58.0193C56.2308 53.6373 53.8512 49.649 50.6194 46.4107C47.3876 43.1724 43.4042 40.7848 39.0248 39.461L39.2867 39.2178L63.0833 15.4213C63.2704 15.2342 63.4574 15.0284 63.6258 14.8226C64.8857 19.244 67.2531 23.2707 70.5039 26.5215C73.7548 29.7723 77.7814 32.1397 82.2028 33.3996L81.6042 33.9422L57.8076 57.7387ZM97.0382 41.8743C97.0366 42.8586 96.8407 43.8329 96.4619 44.7414C96.0831 45.6499 95.5288 46.4748 94.8307 47.1687L71.0342 70.9839C70.3392 71.6797 69.5139 72.2316 68.6054 72.6082C67.697 72.9848 66.7232 73.1787 65.7398 73.1787C64.7564 73.1787 63.7826 72.9848 62.8742 72.6082C61.9657 72.2316 61.1404 71.6797 60.4455 70.9839C59.7508 70.2885 59.1999 69.4629 58.8243 68.5545C58.4488 67.6461 58.2558 66.6726 58.2566 65.6896C58.2564 64.8952 58.3827 64.1058 58.6308 63.3511C58.6723 63.2049 58.7222 63.0612 58.7804 62.9208C59.1446 61.9676 59.7129 61.1056 60.4455 60.3952L84.2607 36.58C84.9886 35.8557 85.8623 35.2945 86.8237 34.9337C86.986 34.8609 87.1552 34.8045 87.3288 34.7653V34.7653C88.0654 34.5245 88.8362 34.4045 89.6112 34.4099C91.5958 34.4099 93.4992 35.1983 94.9026 36.6016C96.306 38.005 97.0944 39.9084 97.0944 41.893L97.0382 41.8743ZM99.9193 88.7752H55.0201C53.5316 88.7752 52.1041 89.3665 51.0516 90.4191C49.999 91.4716 49.4077 92.8991 49.4077 94.3876C49.4077 95.8761 49.999 97.3036 51.0516 98.3562C52.1041 99.4087 53.5316 100 55.0201 100H99.9193C101.408 100 102.835 99.4087 103.888 98.3562C104.94 97.3036 105.532 95.8761 105.532 94.3876C105.532 92.8991 104.94 91.4716 103.888 90.4191C102.835 89.3665 101.408 88.7752 99.9193 88.7752Z" fill="black" />
</svg>
  