<svg width="36" height="36" viewBox="0 0 36 36" fill="none" xmlns="http://www.w3.org/2000/svg">
<rect width="36" height="36" fill="#404041"/>
<path d="M19 27H15V15H19V17C19.4211 16.4643 19.9555 16.0284 20.565 15.7236C21.1744 15.4188 21.8438 15.2526 22.525 15.237C23.7164 15.2436 24.8565 15.7224 25.6954 16.5684C26.5343 17.4144 27.0035 18.5586 27 19.75V27H23V20.25C22.9226 19.7096 22.6527 19.2153 22.2398 18.8581C21.8269 18.5009 21.2989 18.3048 20.753 18.306C20.5087 18.3137 20.2684 18.3707 20.0466 18.4736C19.8249 18.5765 19.6262 18.7231 19.4624 18.9046C19.2987 19.0862 19.1734 19.2989 19.0939 19.5301C19.0144 19.7613 18.9825 20.0062 19 20.25V27ZM13 27H9V15H13V27ZM11 13C10.4696 13 9.96086 12.7893 9.58579 12.4142C9.21071 12.0391 9 11.5304 9 11C9 10.4696 9.21071 9.96086 9.58579 9.58579C9.96086 9.21071 10.4696 9 11 9C11.5304 9 12.0391 9.21071 12.4142 9.58579C12.7893 9.96086 13 10.4696 13 11C13 11.5304 12.7893 12.0391 12.4142 12.4142C12.0391 12.7893 11.5304 13 11 13Z" fill="white"/>
</svg>
