<svg width="50" height="50" viewBox="0 0 50 50" fill="none" xmlns="http://www.w3.org/2000/svg">
<path d="M12.8571 40L3.75 50H46.25L37.1429 40H12.8571Z" fill="#FDBA30"/>
<path d="M45 36.25V5H5V36.25H45ZM19.0999 15.829C20.0733 14.9252 20.9771 13.9518 21.7941 12.9262C22.2112 12.4048 22.6111 11.8659 23.0282 11.2749L23.4975 10.597H26.6089L27.0782 11.2749C27.4954 11.8659 27.8952 12.4048 28.3124 12.9262C29.1293 13.9518 30.0332 14.9252 31.0066 15.829C31.9626 16.7155 32.9708 17.5325 34.0137 18.2625L32.206 20.8351C31.0413 20.0181 29.9115 19.1142 28.8686 18.1235C28.0864 17.3934 27.339 16.6113 26.6437 15.8116L26.5915 29.9606H23.4454L23.4975 15.8116C22.8022 16.6113 22.0548 17.3934 21.2727 18.1235C20.2123 19.1142 19.0825 20.0181 17.9179 20.8351L16.1102 18.2625C17.1357 17.5325 18.1438 16.7155 19.0999 15.829Z" fill="#FDBA30"/>
<path d="M50 0V36.25H47.5V2.5H2.5V36.25H0V0H50Z" fill="#FDBA30"/>
</svg>
