<svg width="36" height="36" viewBox="0 0 36 36" fill="none" xmlns="http://www.w3.org/2000/svg">
<rect width="36" height="36" fill="#404041"/>
<path d="M20.6495 22.6607V25.4866C20.6495 26.0848 20.4753 26.3839 20.1269 26.3839C19.9214 26.3839 19.7204 26.2857 19.5239 26.0893V22.058C19.7204 21.8616 19.9214 21.7634 20.1269 21.7634C20.4753 21.7634 20.6495 22.0625 20.6495 22.6607ZM25.1787 22.6741V23.2902H23.9727V22.6741C23.9727 22.067 24.1737 21.7634 24.5757 21.7634C24.9777 21.7634 25.1787 22.067 25.1787 22.6741ZM12.2344 19.7545H13.6682V18.4955H9.48739V19.7545H10.8944V27.375H12.2344V19.7545ZM16.0935 27.375H17.2861V20.7589H16.0935V25.8214C15.8255 26.1964 15.5709 26.3839 15.3297 26.3839C15.1689 26.3839 15.0751 26.2902 15.0483 26.1027C15.0394 26.0759 15.0349 25.9196 15.0349 25.6339V20.7589H13.8423V25.9955C13.8423 26.433 13.8781 26.7589 13.9495 26.9732C14.0567 27.3036 14.3158 27.4688 14.7267 27.4688C15.1555 27.4688 15.6111 27.1964 16.0935 26.6518V27.375ZM21.8421 25.3929V22.7545C21.8421 22.1027 21.8019 21.6607 21.7215 21.4286C21.5696 20.9286 21.2525 20.6786 20.7701 20.6786C20.3234 20.6786 19.908 20.9196 19.5239 21.4018V18.4955H18.3313V27.375H19.5239V26.7321C19.9259 27.2232 20.3413 27.4688 20.7701 27.4688C21.2525 27.4688 21.5696 27.2232 21.7215 26.7321C21.8019 26.4911 21.8421 26.0446 21.8421 25.3929ZM26.3712 25.2589V25.0848H25.1519C25.1519 25.5402 25.1429 25.8125 25.1251 25.9018C25.0625 26.2232 24.8839 26.3839 24.5891 26.3839C24.1781 26.3839 23.9727 26.0759 23.9727 25.4598V24.2946H26.3712V22.9152C26.3712 22.2098 26.2506 21.692 26.0094 21.3616C25.661 20.9063 25.1876 20.6786 24.5891 20.6786C23.9816 20.6786 23.5037 20.9063 23.1553 21.3616C22.9051 21.692 22.7801 22.2098 22.7801 22.9152V25.2321C22.7801 25.9375 22.9096 26.4554 23.1687 26.7857C23.5171 27.2411 23.9995 27.4688 24.6159 27.4688C25.259 27.4688 25.7414 27.2321 26.063 26.7589C26.2238 26.5179 26.3176 26.2768 26.3444 26.0357C26.3623 25.9554 26.3712 25.6964 26.3712 25.2589ZM18.2241 13.0313V10.2188C18.2241 9.60268 18.032 9.29464 17.6479 9.29464C17.2638 9.29464 17.0717 9.60268 17.0717 10.2188V13.0313C17.0717 13.6563 17.2638 13.9688 17.6479 13.9688C18.032 13.9688 18.2241 13.6563 18.2241 13.0313ZM27.8586 23.0893C27.8586 25.1786 27.7425 26.7411 27.5102 27.7768C27.3852 28.3036 27.1261 28.7455 26.733 29.1027C26.34 29.4598 25.8844 29.6652 25.3662 29.7188C23.7225 29.9063 21.2436 30 17.9293 30C14.6151 30 12.1361 29.9063 10.4924 29.7188C9.97425 29.6652 9.51642 29.4598 9.11889 29.1027C8.72136 28.7455 8.46453 28.3036 8.3484 27.7768C8.11613 26.7768 8 25.2143 8 23.0893C8 21 8.11613 19.4375 8.3484 18.4018C8.47346 17.875 8.73253 17.433 9.12559 17.0759C9.51865 16.7188 9.97872 16.5089 10.5058 16.4464C12.1406 16.2679 14.6151 16.1786 17.9293 16.1786C21.2436 16.1786 23.7225 16.2679 25.3662 16.4464C25.8844 16.5089 26.3422 16.7188 26.7397 17.0759C27.1373 17.433 27.3941 17.875 27.5102 18.4018C27.7425 19.4018 27.8586 20.9643 27.8586 23.0893ZM14.4855 6H15.8523L14.2309 11.3438V14.9732H12.891V11.3438C12.7659 10.683 12.4934 9.73661 12.0736 8.50446C11.743 7.58482 11.4527 6.75 11.2026 6H12.623L13.5744 9.52232L14.4855 6ZM19.4435 10.4598V12.8036C19.4435 13.5268 19.3184 14.0536 19.0683 14.3839C18.7288 14.8393 18.2554 15.067 17.6479 15.067C17.0494 15.067 16.5804 14.8393 16.2409 14.3839C15.9908 14.0446 15.8657 13.5179 15.8657 12.8036V10.4598C15.8657 9.74554 15.9908 9.22321 16.2409 8.89286C16.5804 8.4375 17.0494 8.20982 17.6479 8.20982C18.2554 8.20982 18.7288 8.4375 19.0683 8.89286C19.3184 9.22321 19.4435 9.74554 19.4435 10.4598ZM23.9325 8.29018V14.9732H22.7131V14.2366C22.2396 14.7902 21.7795 15.067 21.3329 15.067C20.922 15.067 20.6584 14.9018 20.5423 14.5714C20.4708 14.3571 20.4351 14.0223 20.4351 13.567V8.29018H21.6545V13.2054C21.6545 13.5 21.6589 13.6563 21.6679 13.6741C21.6947 13.8705 21.7885 13.9688 21.9493 13.9688C22.1905 13.9688 22.4451 13.7768 22.7131 13.3929V8.29018H23.9325Z" fill="white"/>
</svg>
