<svg width="50" height="50" viewBox="0 0 50 50" fill="none" xmlns="http://www.w3.org/2000/svg">
<path d="M26.5173 0V5.33886C36.6895 6.09908 44.6895 14.6168 44.6895 25C44.6895 35.3832 36.6869 43.9016 26.5173 44.6791V50C39.6203 49.2224 50 38.3382 50 25C50 11.6618 39.6203 0.777544 26.5173 0ZM0 25C0 38.3382 10.3796 49.2224 23.4827 50V44.6791C13.3105 43.9016 5.3105 35.3839 5.3105 25C5.3105 14.6161 13.3131 6.09908 23.4827 5.33886V0C10.3796 0.777544 0 11.6618 0 25Z" fill="#FDBA30"/>
<path d="M23.488 11.1652V39.0078H19.6743V18.5582C17.7172 19.8708 15.7569 21.1744 13.7933 22.487V18.5582C14.109 17.7243 17.5245 16.6509 21.3222 11.1652H23.488Z" fill="#FDBA30"/>
<path d="M36.2069 18.5584V22.4872C34.2434 21.1746 32.2831 19.871 30.326 18.5584V39.0099H26.5123V11.1673H28.6781C32.4758 16.6511 35.8913 17.7264 36.2069 18.5584Z" fill="#FDBA30"/>
</svg>
