<svg width="36" height="36" viewBox="0 0 36 36" fill="none" xmlns="http://www.w3.org/2000/svg">
<rect width="36" height="36" fill="#404041"/>
<path fill-rule="evenodd" clip-rule="evenodd" d="M18.315 8C20.745 8 21.099 8.013 22.123 8.06C23.187 8.109 23.914 8.278 24.55 8.525C25.2175 8.77587 25.8222 9.16936 26.322 9.678C26.8306 10.1778 27.2241 10.7825 27.475 11.45C27.722 12.086 27.891 12.813 27.94 13.877C27.988 14.944 28 15.284 28 18V18.08C28 20.723 27.988 21.067 27.94 22.123C27.891 23.187 27.722 23.914 27.475 24.55C27.2241 25.2175 26.8306 25.8222 26.322 26.322C25.8222 26.8306 25.2175 27.2241 24.55 27.475C23.914 27.722 23.187 27.891 22.123 27.94C21.056 27.988 20.716 28 18 28H17.92C15.277 28 14.933 27.988 13.877 27.94C12.813 27.891 12.086 27.722 11.45 27.475C10.7825 27.2241 10.1778 26.8306 9.678 26.322C9.16936 25.8222 8.77587 25.2175 8.525 24.55C8.278 23.914 8.109 23.187 8.06 22.123C8.013 21.099 8 20.744 8 18.315V17.685C8 15.255 8.013 14.901 8.06 13.877C8.109 12.813 8.278 12.086 8.525 11.45C8.77587 10.7825 9.16936 10.1778 9.678 9.678C10.1778 9.16936 10.7825 8.77587 11.45 8.525C12.086 8.278 12.813 8.109 13.877 8.06C14.901 8.013 15.256 8 17.685 8H18.315ZM18.234 9.802H17.766C15.31 9.802 14.982 9.813 13.959 9.86C12.984 9.905 12.455 10.067 12.102 10.204C11.635 10.386 11.302 10.602 10.952 10.952C10.602 11.302 10.386 11.635 10.204 12.102C10.067 12.455 9.904 12.984 9.86 13.959C9.813 14.982 9.802 15.31 9.802 17.766V18.234C9.802 20.69 9.813 21.018 9.86 22.041C9.905 23.016 10.067 23.545 10.204 23.898C10.386 24.364 10.603 24.698 10.952 25.048C11.302 25.398 11.635 25.614 12.102 25.796C12.455 25.933 12.984 26.096 13.959 26.14C15.013 26.188 15.329 26.198 18 26.198H18.08C20.677 26.198 20.997 26.188 22.04 26.14C23.016 26.095 23.545 25.933 23.898 25.796C24.364 25.614 24.698 25.398 25.048 25.048C25.398 24.698 25.614 24.365 25.796 23.898C25.933 23.545 26.096 23.016 26.14 22.041C26.188 20.986 26.198 20.671 26.198 18V17.92C26.198 15.323 26.188 15.003 26.14 13.96C26.095 12.984 25.933 12.455 25.796 12.102C25.6358 11.6676 25.3802 11.2746 25.048 10.952C24.7254 10.6199 24.3324 10.3643 23.898 10.204C23.545 10.067 23.016 9.904 22.041 9.86C21.018 9.813 20.69 9.802 18.234 9.802ZM18 12.865C18.6743 12.865 19.3421 12.9978 19.9651 13.2559C20.5881 13.5139 21.1542 13.8922 21.631 14.369C22.1078 14.8458 22.4861 15.4119 22.7441 16.0349C23.0022 16.6579 23.135 17.3257 23.135 18C23.135 18.6743 23.0022 19.3421 22.7441 19.9651C22.4861 20.5881 22.1078 21.1542 21.631 21.631C21.1542 22.1078 20.5881 22.4861 19.9651 22.7441C19.3421 23.0022 18.6743 23.135 18 23.135C16.6381 23.135 15.332 22.594 14.369 21.631C13.406 20.668 12.865 19.3619 12.865 18C12.865 16.6381 13.406 15.332 14.369 14.369C15.332 13.406 16.6381 12.865 18 12.865ZM18 14.667C17.116 14.667 16.2683 15.0182 15.6432 15.6432C15.0182 16.2683 14.667 17.116 14.667 18C14.667 18.884 15.0182 19.7317 15.6432 20.3568C16.2683 20.9818 17.116 21.333 18 21.333C18.884 21.333 19.7317 20.9818 20.3568 20.3568C20.9818 19.7317 21.333 18.884 21.333 18C21.333 17.116 20.9818 16.2683 20.3568 15.6432C19.7317 15.0182 18.884 14.667 18 14.667ZM23.338 11.462C23.6563 11.462 23.9615 11.5884 24.1865 11.8135C24.4116 12.0385 24.538 12.3437 24.538 12.662C24.538 12.9803 24.4116 13.2855 24.1865 13.5105C23.9615 13.7356 23.6563 13.862 23.338 13.862C23.0197 13.862 22.7145 13.7356 22.4895 13.5105C22.2644 13.2855 22.138 12.9803 22.138 12.662C22.138 12.3437 22.2644 12.0385 22.4895 11.8135C22.7145 11.5884 23.0197 11.462 23.338 11.462Z" fill="#F8F8F8"/>
</svg>
