<svg width="90" height="100" viewBox="0 0 90 100" fill="none" xmlns="http://www.w3.org/2000/svg">
  <path d="M40.1786 33.9286C41.6579 33.9286 42.8571 32.7293 42.8571 31.25C42.8571 29.7707 41.6579 28.5714 40.1786 28.5714C38.6992 28.5714 37.5 29.7707 37.5 31.25C37.5 32.7293 38.6992 33.9286 40.1786 33.9286Z" fill="black" />
  <path d="M58.625 62.5H57.4464C54.5258 62.5047 51.7261 63.667 49.6609 65.7323C47.5956 67.7975 46.4333 70.5972 46.4286 73.5179V89.2857H69.6429V73.5179C69.6335 70.5986 68.4696 67.8017 66.4054 65.7375C64.3412 63.6732 61.5442 62.5094 58.625 62.5V62.5ZM58.0357 82.1429C56.4464 82.1429 54.8928 81.6716 53.5713 80.7886C52.2499 79.9056 51.2199 78.6506 50.6117 77.1823C50.0035 75.7139 49.8444 74.0982 50.1544 72.5395C50.4645 70.9807 51.2298 69.5489 52.3536 68.425C53.4774 67.3012 54.9093 66.5359 56.468 66.2258C58.0268 65.9158 59.6425 66.0749 61.1109 66.6831C62.5792 67.2913 63.8342 68.3213 64.7172 69.6427C65.6002 70.9642 66.0714 72.5178 66.0714 74.1071C66.0714 76.2383 65.2248 78.2823 63.7178 79.7893C62.2109 81.2962 60.1669 82.1429 58.0357 82.1429Z" fill="black" />
  <path d="M58.0357 78.5714C60.5013 78.5714 62.5 76.5727 62.5 74.1071C62.5 71.6416 60.5013 69.6429 58.0357 69.6429C55.5701 69.6429 53.5714 71.6416 53.5714 74.1071C53.5714 76.5727 55.5701 78.5714 58.0357 78.5714Z" fill="black" />
  <path d="M53.4107 33.1964C53.4107 33.5357 53.3036 33.875 53.2143 34.2143L53.0893 34.7143C53 35.0536 52.8929 35.3928 52.7679 35.7321L52.625 36.125C52.4469 36.5762 52.2442 37.0174 52.0179 37.4464H60.7143C70.5536 37.4464 78.5714 44.5893 78.5714 53.5178C78.5244 56.0844 77.8486 58.6002 76.6033 60.8448C75.358 63.0895 73.5812 64.9945 71.4286 66.3928L71.5179 66.5714C71.625 66.75 71.6964 66.9464 71.7857 67.1428C72.006 67.5906 72.2027 68.0495 72.375 68.5178C72.375 68.75 72.5357 68.9821 72.6071 69.2143C72.7513 69.6899 72.8705 70.1727 72.9643 70.6607C72.9643 70.875 73.0536 71.0893 73.0893 71.3036C73.201 72.0125 73.2607 72.7287 73.2679 73.4464V79.1964C79.0462 76.347 83.6918 71.6282 86.4507 65.8062C89.2096 59.9841 89.9197 53.4005 88.4659 47.124C87.0121 40.8475 83.4796 35.2466 78.4419 31.2304C73.4041 27.2143 67.1569 25.0187 60.7143 25H52.0179C52.2443 25.429 52.447 25.8702 52.625 26.3214L52.7679 26.7143C52.8929 27.0536 53 27.3928 53.0893 27.7321L53.2143 28.2321C53.2143 28.5714 53.3571 28.9107 53.4107 29.25C53.4643 29.5893 53.4107 29.5536 53.4107 29.7143C53.5315 30.7047 53.5315 31.706 53.4107 32.6964C53.4643 32.8928 53.4286 33.0536 53.4107 33.1964ZM30.3571 31.25C30.3571 33.1925 30.9332 35.0914 32.0124 36.7065C33.0915 38.3216 34.6254 39.5804 36.4201 40.3238C38.2147 41.0672 40.1895 41.2617 42.0946 40.8827C43.9998 40.5037 45.7498 39.5683 47.1234 38.1948C48.4969 36.8212 49.4323 35.0712 49.8113 33.1661C50.1902 31.2609 49.9957 29.2861 49.2524 27.4915C48.509 25.6969 47.2502 24.163 45.6351 23.0838C44.0199 22.0046 42.1211 21.4286 40.1786 21.4286C37.5752 21.4333 35.0798 22.4695 33.239 24.3104C31.3981 26.1513 30.3619 28.6466 30.3571 31.25V31.25ZM40.1786 25C41.4147 25 42.6231 25.3665 43.6509 26.0533C44.6787 26.7401 45.4798 27.7162 45.9528 28.8582C46.4259 30.0003 46.5496 31.2569 46.3085 32.4693C46.0673 33.6817 45.4721 34.7953 44.598 35.6694C43.7239 36.5435 42.6103 37.1387 41.3979 37.3799C40.1855 37.6211 38.9288 37.4973 37.7868 37.0242C36.6448 36.5512 35.6686 35.7501 34.9819 34.7223C34.2951 33.6945 33.9286 32.4861 33.9286 31.25C33.9286 29.5924 34.5871 28.0027 35.7592 26.8306C36.9313 25.6585 38.521 25 40.1786 25V25ZM80.3571 92.8571H1.78571C1.31211 92.8571 0.85791 93.0453 0.523024 93.3802C0.188138 93.715 0 94.1692 0 94.6428V100H82.1429V94.6428C82.1429 94.1692 81.9547 93.715 81.6198 93.3802C81.2849 93.0453 80.8307 92.8571 80.3571 92.8571Z" fill="black" />
  <path d="M37.5 0H12.5V3.57143H37.5V0Z" fill="black" />
  <path d="M37.5 44.375C34.4724 43.7602 31.7505 42.1177 29.7954 39.7257C27.8403 37.3337 26.7723 34.3393 26.7723 31.25C26.7723 28.1607 27.8403 25.1663 29.7954 22.7743C31.7505 20.3823 34.4724 18.7398 37.5 18.125V17.8571H12.5V62.5H37.5V44.375Z" fill="black" />
  <path d="M28.5714 76.7857H21.4286V80.3571H28.5714V76.7857Z" fill="black" />
  <path d="M33.9286 70.4821V66.0714H16.0714V70.4821L20.1786 73.2143H29.8214L33.9286 70.4821Z" fill="black" />
  <path d="M33.9286 7.14285H16.0714V14.2857H33.9286V7.14285Z" fill="black" />
</svg>
  