<svg width="50" height="50" viewBox="0 0 50 50" fill="none" xmlns="http://www.w3.org/2000/svg">
<path d="M31.686 20.0584V0.0243378C26.836 0.728564 23.096 4.95394 23.096 10.0535C23.096 15.1531 26.836 19.3542 31.686 20.0827" fill="#FDBA30"/>
<path d="M43.2199 10.0292C43.2199 4.9296 39.4798 0.704226 34.6057 0V20.0583C39.4798 19.3541 43.2199 15.1287 43.2199 10.0292Z" fill="#FDBA30"/>
<path d="M42.496 37.4454C42.496 37.4454 42.6408 37.5912 42.7132 37.664C45.0055 39.8253 47.4425 41.8164 50.0002 43.6377V34.1185C49.3246 33.5357 48.6731 32.953 48.0216 32.3459C45.0296 29.529 42.3271 26.3964 39.9866 22.9724H34.6057V50H42.496V37.4697V37.4454Z" fill="#FDBA30"/>
<path d="M16.1469 43.7106C18.7769 41.8651 21.2622 39.8495 23.6028 37.6397C23.6752 37.5669 23.7476 37.4939 23.8199 37.4211V49.9516H31.7102V22.9238H26.3294C23.9889 26.3235 21.2863 29.4804 18.2943 32.2973C17.5946 32.9529 16.8707 33.5844 16.1469 34.1915V43.6863V43.7106Z" fill="#FDBA30"/>
<path d="M9.71202 12.5365V0.0151825C6.68078 0.455324 4.34326 3.09618 4.34326 6.28341C4.34326 9.47064 6.68078 12.0963 9.71202 12.5516" fill="#FDBA30"/>
<path d="M16.9207 6.26823C16.9207 3.081 14.5832 0.440142 11.5369 0V12.5365C14.5832 12.0963 16.9207 9.45546 16.9207 6.26823Z" fill="#FDBA30"/>
<path d="M16.4683 23.4034C16.4683 23.4034 16.5588 23.4945 16.604 23.54C18.0367 24.8908 19.5599 26.1353 21.1584 27.2736V21.3241C20.7362 20.9598 20.329 20.5956 19.9218 20.2162C18.0518 18.4556 16.3627 16.4978 14.8999 14.3578H11.5369V31.25H16.4683V23.4186V23.4034Z" fill="#FDBA30"/>
<path d="M0 27.3192C1.64381 26.1657 3.19712 24.906 4.65996 23.5248C4.7052 23.4793 4.75044 23.4337 4.79568 23.3882V31.2197H9.72709V14.3274H6.3641C4.90126 16.4522 3.21219 18.4252 1.34217 20.1858C0.904824 20.5956 0.452424 20.9902 0 21.3697V27.304V27.3192Z" fill="#FDBA30"/>
</svg>
