<svg width="36" height="36" viewBox="0 0 36 36" fill="none" xmlns="http://www.w3.org/2000/svg">
<rect width="36" height="36" fill="#404041"/>
<path d="M14.29 26.2534C21.837 26.2534 25.965 20.0004 25.965 14.5784C25.965 14.4004 25.965 14.2234 25.953 14.0484C26.7562 13.4669 27.4493 12.747 28 11.9224C27.2511 12.2544 26.4566 12.4722 25.643 12.5684C26.4996 12.0555 27.1408 11.2487 27.447 10.2984C26.6417 10.7763 25.7607 11.1131 24.842 11.2944C24.2234 10.6362 23.405 10.2002 22.5136 10.0541C21.6222 9.90797 20.7075 10.0598 19.9111 10.4861C19.1147 10.9123 18.4811 11.5893 18.1083 12.4121C17.7355 13.2348 17.6444 14.1576 17.849 15.0374C16.2176 14.9556 14.6216 14.5317 13.1646 13.7932C11.7077 13.0546 10.4223 12.0179 9.392 10.7504C8.86732 11.6536 8.70659 12.7228 8.94254 13.7404C9.17848 14.7579 9.79337 15.6473 10.662 16.2274C10.0093 16.2085 9.37063 16.0329 8.8 15.7154V15.7674C8.80039 16.7147 9.1284 17.6327 9.7284 18.3658C10.3284 19.0988 11.1635 19.6018 12.092 19.7894C11.4878 19.9541 10.8539 19.9781 10.239 19.8594C10.5012 20.6749 11.0117 21.388 11.6991 21.899C12.3866 22.41 13.2166 22.6934 14.073 22.7094C13.2221 23.378 12.2478 23.8722 11.2057 24.1639C10.1637 24.4556 9.07432 24.539 8 24.4094C9.8766 25.6137 12.0602 26.2525 14.29 26.2494" fill="#F8F8F8"/>
</svg>
