<svg width="50" height="50" viewBox="0 0 50 50" fill="none" xmlns="http://www.w3.org/2000/svg">
<path fill-rule="evenodd" clip-rule="evenodd" d="M25.3616 0V9.97574H17.1204C18.8634 6.08033 21.25 2.70163 24.1043 0.0704446C24.5195 0.0300569 24.9403 0.0175649 25.3616 0V0ZM27.2606 0.00783482C27.692 0.0258286 28.1261 0.0324392 28.5513 0.0743658C30.9327 2.27162 32.9899 4.98597 34.6191 8.08939C34.0701 8.63618 33.6138 9.27406 33.2431 9.97574H27.2606V0.00783482ZM20.7737 0.657483C18.4241 3.30902 16.4682 6.4621 15.0063 9.97574H12.2802C12.5471 9.22078 12.7439 8.47606 12.7439 7.74108C12.7439 6.72799 12.5441 5.76195 12.2098 4.87242C14.7304 2.90289 17.6276 1.45078 20.7737 0.657483ZM31.8522 0.669224C35.8256 1.67134 39.4002 3.72247 42.3151 6.53569C41.4751 6.177 40.5626 5.96822 39.6039 5.96822C38.3566 5.96822 37.1985 6.33461 36.1694 6.92314C34.9441 4.62513 33.4962 2.5246 31.8522 0.669224V0.669224ZM5.42245 1.96071C8.4238 1.96071 10.8449 4.53325 10.8449 7.74108C10.8449 8.37753 10.5187 9.45976 9.95475 10.6215C9.39079 11.7834 8.6123 13.0396 7.83325 14.1868C6.62822 15.9608 5.90815 16.7933 5.42245 17.3842C4.93634 16.7928 4.21246 15.9601 3.00794 14.1868C2.22888 13.0396 1.4541 11.7834 0.890142 10.6215C0.326181 9.45976 0 8.37753 0 7.74108C0 4.53325 2.42109 1.96071 5.42245 1.96071ZM5.42245 3.72574C3.73174 3.72574 2.34777 5.20091 2.34775 6.98575C2.34777 8.7706 3.73174 10.2458 5.42245 10.2458C7.11315 10.2458 8.49713 8.7706 8.49714 6.98575C8.49713 5.20091 7.11315 3.72574 5.42245 3.72574ZM5.42245 5.72949C6.07776 5.72949 6.59817 6.27426 6.59818 6.98575C6.59817 7.69725 6.07776 8.24593 5.42245 8.24593C4.76713 8.24593 4.24672 7.69725 4.24672 6.98575C4.24672 6.27426 4.76713 5.72949 5.42245 5.72949V5.72949ZM39.6039 7.97198C42.6052 7.97198 45.0263 10.5445 45.0263 13.7523C45.0263 14.3888 44.6964 15.471 44.1325 16.6327C43.5685 17.7945 42.7975 19.0511 42.0184 20.198C40.8134 21.9723 40.0896 22.8044 39.6039 23.3954C39.1182 22.8044 38.3944 21.9723 37.1894 20.198C36.4103 19.0511 35.6393 17.7945 35.0753 16.6327C34.5113 15.471 34.1814 14.3888 34.1814 13.7523C34.1814 10.5445 36.6025 7.97198 39.6039 7.97198ZM39.6039 9.73701C37.9132 9.73701 36.5292 11.2122 36.5292 12.997C36.5292 14.7821 37.9132 16.257 39.6039 16.257C41.2946 16.257 42.6749 14.7821 42.6749 12.997C42.6749 11.2122 41.2946 9.73701 39.6039 9.73701V9.73701ZM39.6039 11.7408C40.2592 11.7408 40.7759 12.2855 40.7759 12.997C40.7759 13.7087 40.2592 14.2533 39.6039 14.2533C38.9486 14.2533 38.4319 13.7087 38.4319 12.997C38.4319 12.2855 38.9486 11.7408 39.6039 11.7408ZM11.4012 11.9795H14.246C12.9499 15.6904 12.1946 19.7459 12.0911 24.002H2.6185C2.69459 21.9709 2.98274 20.001 3.4901 18.1238C4.19523 19.032 4.71404 19.6619 4.71404 19.6619C5.09164 20.108 5.75325 20.108 6.13085 19.6619C6.13085 19.6619 7.75207 17.7497 9.37987 15.353C10.1005 14.2921 10.8066 13.1328 11.4012 11.9795ZM16.3193 11.9795H25.3616V24.002H13.9938C14.1043 19.7064 14.9432 15.658 16.3193 11.9795ZM27.2606 11.9795H32.4902C32.3637 12.5509 32.2825 13.1413 32.2825 13.7523C32.2825 14.9882 32.7533 16.2452 33.384 17.5446C34.0148 18.844 34.8326 20.166 35.6465 21.3643C36.3497 22.3997 37.0076 23.2628 37.5788 24.002H27.2606V11.9795ZM46.7955 12.3826C48.6996 15.8184 49.8412 19.7716 50 24.002H41.629C42.2002 23.2628 42.858 22.3997 43.5613 21.3643C44.3752 20.166 45.1967 18.844 45.8275 17.5446C46.4582 16.2452 46.9253 14.9882 46.9253 13.7523C46.9253 13.2841 46.8708 12.8287 46.7955 12.3826V12.3826ZM2.62221 26.0058H12.0911C12.1945 30.2619 12.9498 34.318 14.246 38.0283H6.06038C4.01958 34.4999 2.78702 30.4036 2.62221 26.0058ZM13.9938 26.0058H25.3616V38.0283H16.3193C14.9439 34.3503 14.1039 30.3014 13.9938 26.0058ZM27.2606 26.0058H38.5951C38.3944 29.7787 37.4143 33.9276 35.7095 38.0283H27.2606V26.0058ZM40.5014 26.0058H50C49.8352 30.4032 48.6061 34.5001 46.5655 38.0283H37.7754C39.3765 33.9611 40.3156 29.8453 40.5014 26.0058ZM7.34738 40.0321H15.0063C16.4655 43.5382 18.4191 46.6867 20.7626 49.3347C15.3131 47.9572 10.609 44.6105 7.34738 40.0321V40.0321ZM17.1204 40.0321H25.3616V50C24.9426 49.9826 24.5212 49.9735 24.108 49.9335C21.2526 47.3016 18.8633 43.9283 17.1204 40.0321V40.0321ZM27.2606 40.0321H34.786C33.1217 43.5443 30.9782 46.9429 28.4029 49.9413C28.026 49.976 27.6424 49.9841 27.2606 50V40.0321ZM36.9186 40.0321H45.2785C41.8949 44.7819 36.9644 48.2249 31.2551 49.4991C33.5306 46.5558 35.4319 43.3409 36.9186 40.0321Z" fill="#FDBA30"/>
</svg>
