<svg width="40" height="50" viewBox="0 0 40 50" fill="none" xmlns="http://www.w3.org/2000/svg">
<path d="M37.8987 49.7278L20.788 37.2959C20.3377 36.9191 19.6623 36.9191 19.137 37.2959L2.02627 49.7278C1.20075 50.3306 0 49.8032 0 48.899V11.3771C0 10.7744 0.525329 10.3223 1.2758 10.3223H38.7242C39.3996 10.3223 40 10.7744 40 11.3771V48.899C39.925 49.8785 38.7242 50.3306 37.8987 49.7278ZM38.8743 0H1.05066C0.450281 0 0 0.452072 0 1.05483V5.57555C0 6.17831 0.450281 6.63038 1.05066 6.63038H38.9493C39.5497 6.63038 40 6.17831 40 5.57555V1.05483C39.925 0.452072 39.4747 0 38.8743 0Z" fill="#FDBA30"/>
</svg>
