<svg width="40" height="51" viewBox="0 0 40 51" fill="none" xmlns="http://www.w3.org/2000/svg">
<path d="M39.9993 19.061C39.961 23.1533 38.3937 26.8008 36.272 30.2881C35.5457 31.4624 34.8003 32.6012 34.0549 33.7577C31.8185 37.1739 29.544 40.5723 29.4484 44.7713H21.9749L22.0513 13.3317C22.9497 14.2925 23.9245 15.2355 24.9375 16.1252C26.3137 17.3173 27.7855 18.4205 29.2955 19.399L31.6274 16.2853C30.2703 15.3957 28.9705 14.4171 27.7281 13.3317C26.4666 12.2464 25.3007 11.0721 24.2303 9.82662C23.6951 9.22167 23.1791 8.56335 22.6248 7.83385L22.0322 7.01535H17.9801L17.3684 7.85166C16.8333 8.56337 16.3172 9.22168 15.7629 9.84443C14.7116 11.0721 13.5457 12.2464 12.2841 13.3317C11.0417 14.4171 9.72289 15.3957 8.38492 16.2853L10.7168 19.399C12.2268 18.4205 13.6795 17.3173 15.0557 16.1252C16.0878 15.2355 17.0626 14.2925 17.961 13.3317L17.8845 44.7713H10.5639C10.4683 40.4655 8.0791 37.0137 5.80455 33.5086C5.28848 32.6901 4.73417 31.8895 4.2181 31.071C2.45962 28.242 0.911396 25.324 0.318866 22.0679C-1.45872 12.2642 4.31367 3.86603 14.6925 1.5352C22.2998 -0.172889 29.1808 1.32178 34.8576 6.51722C38.5848 9.9334 40.0375 14.257 39.9993 19.061" fill="#FDBA30"/>
<path d="M28.6838 47.1376H11.3284V50.8611H28.6838V47.1376Z" fill="#FDBA30"/>
</svg>
