<svg width="95" height="100" viewBox="0 0 95 100" fill="none" xmlns="http://www.w3.org/2000/svg">
  <path d="M23.0838 38.0242C22.6595 36.3762 22.41 34.6595 22.41 32.8799C22.41 29.9748 23.017 27.215 24.1012 24.7067L15.765 19.8943C14.1759 23.1039 13.1447 26.6316 12.7695 30.3539L23.0838 38.0242Z" fill="black" />
  <path d="M24.1012 24.7067L23.7437 24.5004L15.7061 32.5381L23.0838 38.0242C22.6595 36.3762 22.41 34.6595 22.41 32.8799C22.41 29.9748 23.017 27.2131 24.1012 24.7067ZM41.0703 12.3536V2.98608C31.3237 3.60678 22.8264 8.81989 17.7076 16.4785L25.9948 21.2634C29.3615 16.3351 34.8064 12.9448 41.0703 12.3536Z" fill="black" />
  <path d="M24.0187 20.1221L25.9947 21.2634C29.3614 16.3351 34.8063 12.9448 41.0703 12.3535V3.07053L24.0187 20.1221ZM44.9988 0.982544V14.3237C54.38 15.3058 61.6948 23.2374 61.6948 32.8799C61.6948 38.5173 59.1826 43.5614 55.2305 46.9831L66.6506 55.6572C72.2074 49.8509 75.6213 41.9822 75.6213 33.3042C75.6233 16.0051 62.0621 1.91359 44.9988 0.982544Z" fill="black" />
  <path d="M83.3014 81.6579V99.0179H71.516V72.7089L83.3014 81.6579Z" fill="black" />
  <path d="M53.1641 58.7509L61.6948 65.2506V99.0179H49.9094V62.6794L53.1641 58.7509Z" fill="black" />
  <path d="M40.0881 64.0289V99.0179H28.3027V55.2644L40.0881 64.0289Z" fill="black" />
  <path d="M18.4814 47.9594V99.0179H6.69598V39.1949L18.4814 47.9594Z" fill="black" />
  <path d="M49.9094 87.6822V99.0179H61.6948V75.8968L49.9094 87.6822Z" fill="black" />
  <path d="M28.3027 85.718V99.0179H40.0881V73.9325L28.3027 85.718Z" fill="black" />
  <path d="M6.69598 79.8253V99.0179H18.4814V68.0398L6.69598 79.8253Z" fill="black" />
  <path d="M71.516 95.5392V99.0179H83.3014V83.7537L71.516 95.5392Z" fill="black" />
  <path d="M43.2133 46.9104C42.6711 46.9104 42.2311 46.4704 42.2311 45.9283V20.3932C42.2311 19.851 42.6711 19.411 43.2133 19.411C43.7554 19.411 44.1954 19.851 44.1954 20.3932V45.9283C44.1954 46.4724 43.7554 46.9104 43.2133 46.9104Z" fill="black" />
  <path d="M45.2698 34.1429H41.1587C37.9727 34.1429 35.3799 31.5501 35.3799 28.3641C35.3799 25.1781 37.9727 22.5853 41.1587 22.5853H50.0488C50.591 22.5853 51.031 23.0253 51.031 23.5674C51.031 24.1095 50.591 24.5495 50.0488 24.5495H41.1587C39.055 24.5495 37.3441 26.2604 37.3441 28.3641C37.3441 30.4678 39.055 32.1787 41.1587 32.1787H45.2698C45.812 32.1787 46.252 32.6186 46.252 33.1608C46.252 33.7029 45.812 34.1429 45.2698 34.1429Z" fill="black" />
  <path d="M45.2698 43.7362H36.2991C35.757 43.7362 35.317 43.2962 35.317 42.7541C35.317 42.212 35.757 41.772 36.2991 41.772H45.2698C47.3716 41.772 49.0824 40.0611 49.0824 37.9574C49.0824 35.8537 47.3716 34.1429 45.2698 34.1429H42.5278C41.9856 34.1429 41.5456 33.7029 41.5456 33.1607C41.5456 32.6186 41.9856 32.1786 42.5278 32.1786H45.2698C48.4558 32.1786 51.0467 34.7714 51.0467 37.9574C51.0467 41.1434 48.4558 43.7362 45.2698 43.7362Z" fill="black" />
  <path d="M92.9145 83.3C92.7083 83.3 92.5001 83.2352 92.3213 83.0997L52.9854 53.2275L45.9023 61.7778C45.5684 62.1805 44.9791 62.2532 44.5588 61.9408L0.396723 29.0928C-0.0393384 28.7687 -0.129695 28.1539 0.194405 27.7179C0.518505 27.2857 1.13528 27.1934 1.56938 27.5155L44.985 59.8038L52.074 51.2475C52.4099 50.8429 53.005 50.7722 53.4254 51.0904L93.5077 81.5342C93.9398 81.8622 94.0243 82.479 93.6963 82.9111C93.5038 83.1665 93.2111 83.3 92.9145 83.3Z" fill="black" />
  <path d="M83.439 100H71.6535C71.1114 100 70.6714 99.56 70.6714 99.0179V72.7088C70.6714 72.3356 70.8816 71.9958 71.2174 71.8288C71.5514 71.6619 71.9521 71.7031 72.2467 71.9251L84.0322 80.8742C84.2777 81.0608 84.4211 81.3495 84.4211 81.6559V99.0159C84.4211 99.56 83.9831 100 83.439 100ZM72.6356 98.0357H82.4568V82.145L72.6356 74.6868V98.0357ZM61.8323 100H50.0468C49.5047 100 49.0647 99.56 49.0647 99.0179V62.6794C49.0647 62.4496 49.1453 62.2296 49.2906 62.0528L52.5454 58.1243C52.8812 57.7177 53.4764 57.6489 53.8968 57.9691L62.4275 64.4688C62.671 64.6554 62.8144 64.9441 62.8144 65.2506V99.0179C62.8144 99.56 62.3764 100 61.8323 100ZM51.029 98.0357H60.8502V65.7357L53.4568 60.1023L51.029 63.0329V98.0357ZM40.2256 100H28.4402C27.898 100 27.458 99.56 27.458 99.0179V55.2644C27.458 54.8931 27.6663 54.5533 27.9982 54.3863C28.3321 54.2194 28.727 54.2528 29.0255 54.4747L40.811 63.2392C41.0604 63.4258 41.2077 63.7165 41.2077 64.0268V99.0159C41.2077 99.56 40.7697 100 40.2256 100ZM29.4223 98.0357H39.2435V64.5238L29.4223 57.2188V98.0357ZM18.619 100H6.8335C6.29137 100 5.85138 99.56 5.85138 99.0179V39.1949C5.85138 38.8236 6.05959 38.4838 6.39155 38.3169C6.7235 38.1519 7.12028 38.1853 7.41885 38.4053L19.2043 47.1697C19.4538 47.3563 19.6011 47.647 19.6011 47.9574V99.0159C19.6011 99.56 19.1631 100 18.619 100ZM7.81562 98.0357H17.6368V48.4524L7.81562 41.1473V98.0357V98.0357ZM87.3596 84.2468C86.8725 84.2468 86.4521 83.8853 86.3873 83.3904C86.3166 82.8541 86.6957 82.3611 87.2339 82.2904L92.1032 81.654L91.4688 76.7846C91.3981 76.2484 91.7772 75.7553 92.3154 75.6846C92.8379 75.608 93.3446 75.993 93.4154 76.5312L94.1775 82.3748C94.2482 82.9111 93.8691 83.4041 93.3309 83.4748L87.4873 84.2369C87.4441 84.2448 87.4008 84.2468 87.3596 84.2468ZM25.9947 22.2454C25.8277 22.2454 25.6588 22.2042 25.5036 22.1138L17.2165 17.3289C16.9808 17.1934 16.8119 16.9656 16.751 16.7023C16.6881 16.4372 16.7392 16.1602 16.8904 15.9324C22.3864 7.70808 31.1764 2.63248 41.0054 2.00392C41.2824 1.99803 41.5417 2.08249 41.7401 2.26713C41.9384 2.45373 42.0504 2.71301 42.0504 2.98408V12.3515C42.0504 12.8583 41.6654 13.2826 41.1606 13.3297C35.3445 13.8797 30.1117 16.9714 26.804 21.8153C26.6174 22.0942 26.309 22.2454 25.9947 22.2454ZM19.1238 16.1622L25.7138 19.9669C29.1885 15.3058 34.3466 12.2612 40.0881 11.4794V4.05066C31.6439 4.88546 24.0992 9.24215 19.1238 16.1622ZM41.0703 12.3535H41.0899H41.0703ZM23.0837 39.0063C22.8774 39.0063 22.6712 38.9415 22.4983 38.8119L12.1841 31.1395C11.9071 30.9333 11.7579 30.5974 11.7932 30.2517C12.1743 26.4607 13.2153 22.8288 14.8849 19.4562C15.0067 19.2127 15.2208 19.03 15.4821 18.9514C15.7413 18.8748 16.0222 18.9043 16.2579 19.0398L24.5942 23.8522C25.0263 24.1016 25.2031 24.634 25.0047 25.0916C23.9362 27.5626 23.394 30.1829 23.394 32.874C23.394 34.4689 23.6101 36.1189 24.0363 37.7747C24.1404 38.1774 23.9774 38.6017 23.6317 38.8354C23.4647 38.9513 23.2742 39.0063 23.0837 39.0063ZM13.8066 29.9001L21.6262 35.7162C21.4946 34.7616 21.4278 33.8109 21.4278 32.8779C21.4278 30.2085 21.913 27.6059 22.8676 25.127L16.197 21.2751C14.9674 24.0015 14.166 26.8948 13.8066 29.9001Z" fill="black" />
  <path d="M66.6526 56.6354C66.4444 56.6354 66.2362 56.5687 66.0594 56.4351L54.6393 47.761C54.4036 47.5823 54.2602 47.3073 54.2523 47.0107C54.2425 46.7141 54.3662 46.4312 54.5902 46.2367C58.4813 42.8681 60.7147 37.9987 60.7147 32.876C60.7147 23.7972 53.9164 16.2408 44.8986 15.298C44.3997 15.2469 44.0186 14.8246 44.0186 14.3217V0.982554C44.0186 0.713453 44.1306 0.454173 44.325 0.269534C44.5215 0.0848956 44.7768 -0.0172453 45.0538 0.00239711C62.7457 0.968805 76.6054 15.5946 76.6054 33.3022C76.6054 41.9233 73.3232 50.1024 67.3617 56.333C67.1692 56.5333 66.9119 56.6354 66.6526 56.6354ZM56.7607 46.9085L66.5387 54.3334C71.7714 48.5565 74.6412 41.1219 74.6412 33.3002C74.6412 16.9833 62.1348 3.44571 45.9809 2.03539V13.4575C55.5605 14.8894 62.677 23.0881 62.677 32.8779C62.677 38.1696 60.534 43.2177 56.7607 46.9085Z" fill="black" />
</svg>
  